/* XPM */
static char *exit1[] = {
/* width height ncolors chars_per_pixel */
"50 40 8 1",
/* colors */
"  c #000000",
". c #7F7F7F",
"X c #00FFFF",
"o c #7F0000",
"O c #FFFFFF",
"+ c #FFFF00",
"@ c #BFBFBF",
"# c None",
/* pixels */
"OOOOOOOOOOOOOOOOOOOOOOOOOOOOOOOOOOOOOOOOOOOOOOOOO ",
"O@@@@@@@@@@@@@@@@@@@@@@@@@@@@@@@@@@@@@@@@@@@@@@@. ",
"O@@@@@@@@@@@@@@@@@@@@@@@@@@@@@@@@@@@@@@@@@@@@@@@. ",
"O@@@@@@@@@@@@@@@@@@@@@@@@@@@@@@@@@@@@@@@@@@@@@@@. ",
"O@@@@@@@@@@@@@@@@              @@@@@@@@@@@@@@@@@. ",
"O@@@@@@@@@@@@@@@@  oXX +++++++ @@@@@@@@@@@@@@@@@. ",
"O@@@@@@@@@@@@@@@@  oXX +++++++ @@@@@@@@@@@@@@@@@. ",
"O@@@@@@@@@@@@@@@@  ooo +++++++ @@@@@@@@@@@@@@@@@. ",
"O@@@@@@@@@@@@@@@@  ooo +++++++ @@@@@@@@@@@@@@@@@. ",
"O@@@@@@@@@@@@@@@@  ooo +++++++ @@@@@@@@@@@@@@@@@. ",
"O@@@@@@@@@@@@@@@@  ooo+  +++++ @@@@@@@@@@@@@@@@@. ",
"O@@@@@@@@@@@@@@@@  ooo +++++++ @@@@@@@@@@@@@@@@@. ",
"O@@@@@@@@@@@@@@@@  ooo +++++++ @@@@@@@@@@@@@@@@@. ",
"O@@@@@@@@@@@@@@@@  ooo +++++++ @@@@@@@@@@@@@@@@@. ",
"O@@@@@@@@@@@@@@@@  ooo +++++++ @@@@@@@@@@@@@@@@@. ",
"O@@@@@@@@@@@@@@@@  ooo +++++++ @@@@@@@@@@@@@@@@@. ",
"O@@@@@@@@@@@@@@@@  ooo +++++++ @@@@@@@@@@@@@@@@@. ",
"O@@@@@@@@@@@@@@@@  ooo +++++++ @@@@@@@@@@@@@@@@@. ",
"O@@@@@@@@@@@@@@@@  ooo++++++++ @@@@@@@@@@@@@@@@@. ",
"O@@@@@@@@@@@@@@@@  oo+++++++++ @@@@@@@@@@@@@@@@@. ",
"O@@@@@@@@@@@@@@@@  o++++++++++ @@@@@@@@@@@@@@@@@. ",
"O@@@@@@@@@@@@@@@@  o++++++++++ @@@@@@@@@@@@@@@@@. ",
"O@@@@@@@@@@@@@@@@              @@@@@@@@@@@@@@@@@. ",
"O@@@@@@@@@@@@@@@@@@@@@@@@@@@@@@@@@@@@@@@@@@@@@@@. ",
"O@@@@@@@@@@@@@@@@@@@@@@@@@@@@@@@@@@@@@@@@@@@@@@@. ",
"O@@@@@@@@@@@@@@@@     @@@@@@@ @@@@@@@@@@@@@@@@@@. ",
"O@@@@@@@@@@@@@@@@ @@@@@@@@@@@@@ @@@@@@@@@@@@@@@@. ",
"O@@@@@@@@@@@@@@@@ @@@@@@@@@@@@@ @@@@@@@@@@@@@@@@. ",
"O@@@@@@@@@@@@@@@@ @@@@@@ @@ @ @  @@@@@@@@@@@@@@@. ",
"O@@@@@@@@@@@@@@@@    @@@ @@ @ @ @@@@@@@@@@@@@@@@. ",
"O@@@@@@@@@@@@@@@@ @@@@@@@  @@ @ @@@@@@@@@@@@@@@@. ",
"O@@@@@@@@@@@@@@@@ @@@@@@@  @@ @ @@@@@@@@@@@@@@@@. ",
"O@@@@@@@@@@@@@@@@ @@@@@@ @@ @ @ @@@@@@@@@@@@@@@@. ",
"O@@@@@@@@@@@@@@@@     @@ @@ @ @@ @@@@@@@@@@@@@@@. ",
"O@@@@@@@@@@@@@@@@@@@@@@@@@@@@@@@@@@@@@@@@@@@@@@@. ",
"O@@@@@@@@@@@@@@@@@@@@@@@@@@@@@@@@@@@@@@@@@@@@@@@. ",
"O@@@@@@@@@@@@@@@@@@@@@@@@@@@@@@@@@@@@@@@@@@@@@@@. ",
"O@@@@@@@@@@@@@@@@@@@@@@@@@@@@@@@@@@@@@@@@@@@@@@@. ",
"O................................................ ",
"                                                  "
};
