#define dc3_width 207
#define dc3_height 102
static char dc3_bits[] = {
 0x00,0x00,0x00,0x00,0x00,0x00,0x00,0x00,0x00,0x00,0x00,0x00,0x00,0x00,0x00,
 0x00,0x00,0x00,0x00,0x00,0x00,0x00,0x00,0x00,0x00,0x80,0x00,0x00,0x00,0x00,
 0x00,0x00,0x00,0x00,0x00,0x00,0x00,0x00,0x00,0x00,0x00,0x00,0x00,0x00,0x00,
 0x00,0x00,0x00,0x00,0x00,0x00,0x80,0x00,0x00,0x00,0x00,0x00,0x00,0x00,0x00,
 0x00,0x00,0x00,0x00,0x00,0x00,0x00,0x00,0x00,0x00,0x00,0x00,0x00,0x00,0x00,
 0x00,0x00,0x80,0x00,0x00,0x00,0x00,0x00,0x00,0x00,0x00,0x00,0x00,0x00,0x00,
 0x00,0x00,0x00,0x00,0x00,0x00,0x00,0x00,0x00,0x00,0x00,0x00,0x00,0x80,0x00,
 0x00,0x00,0x00,0x00,0x00,0x00,0x00,0x00,0x00,0x00,0x00,0x00,0x00,0x00,0x00,
 0x00,0x00,0x00,0x00,0x00,0x00,0x00,0x00,0x00,0x80,0x00,0x00,0x00,0x00,0x00,
 0x00,0x00,0x00,0x00,0x00,0x00,0x00,0x00,0x00,0x00,0x00,0x00,0x00,0x00,0x00,
 0x00,0x00,0x00,0x00,0x00,0x80,0x00,0x00,0x00,0x00,0x00,0x00,0x00,0x00,0x00,
 0x00,0x00,0x00,0x00,0x00,0x00,0x00,0x00,0x00,0x00,0x00,0x00,0x00,0x00,0x00,
 0x00,0x80,0x00,0x00,0x00,0x00,0x00,0x00,0x00,0x00,0x00,0x00,0x00,0x00,0x00,
 0x00,0x00,0x00,0x00,0x00,0x00,0x00,0x00,0x00,0x00,0x00,0x00,0x80,0x00,0x00,
 0x00,0x00,0x00,0x00,0x00,0x00,0x00,0x00,0x00,0x00,0x00,0x00,0x00,0x00,0x00,
 0x00,0x00,0x00,0x00,0x00,0x00,0x00,0x00,0x80,0x00,0x00,0x00,0x00,0x00,0x00,
 0x00,0x00,0x00,0x00,0x00,0x00,0x00,0x00,0x00,0x00,0x00,0x00,0x00,0x00,0x00,
 0x00,0x00,0x00,0x00,0x80,0x00,0x00,0x00,0x00,0x00,0x00,0x00,0x00,0x00,0x00,
 0x00,0x00,0x00,0x00,0x00,0x00,0x00,0x00,0x00,0x00,0x00,0x00,0x00,0x00,0x00,
 0x80,0x00,0x00,0x00,0x00,0x00,0x00,0x00,0x00,0x00,0x00,0x00,0x00,0x00,0x00,
 0x00,0x00,0x00,0x00,0x00,0x00,0x00,0x00,0x00,0x00,0x00,0x80,0x00,0x00,0x00,
 0x00,0x00,0x00,0x00,0x00,0x00,0x00,0x00,0x00,0x00,0x00,0x00,0x00,0x00,0x00,
 0x00,0x00,0x00,0x00,0x00,0x00,0x00,0x80,0x00,0x00,0x00,0x00,0x00,0x00,0x00,
 0x00,0x00,0x00,0x00,0x00,0x00,0x00,0x00,0x00,0x00,0x00,0x00,0x00,0x00,0x00,
 0x00,0x00,0x00,0x80,0x00,0x00,0x00,0x00,0x00,0x00,0x00,0x00,0x00,0x00,0x00,
 0x00,0x00,0x00,0x00,0x00,0x00,0x00,0x00,0x00,0x00,0x00,0x00,0x00,0x00,0x80,
 0x00,0x00,0x00,0x00,0x00,0x00,0x00,0x00,0x00,0x00,0x00,0x00,0x00,0x00,0x00,
 0x00,0x00,0x00,0x00,0x00,0x00,0x00,0x00,0x00,0x00,0x80,0x00,0x00,0x00,0x00,
 0x00,0x00,0x00,0x00,0x00,0x00,0x00,0x00,0x00,0x00,0x00,0x00,0x00,0x00,0x00,
 0x00,0x00,0x00,0x00,0x00,0x00,0x80,0x00,0x00,0x00,0x00,0x00,0x00,0x00,0x00,
 0x00,0x00,0x00,0x00,0x00,0x00,0x00,0x00,0x00,0x00,0x00,0x00,0x00,0x00,0x00,
 0x00,0x00,0x80,0x00,0x00,0x00,0x00,0x00,0x00,0x00,0x00,0x00,0x00,0x00,0x00,
 0x00,0x00,0x00,0x00,0x00,0x00,0x00,0x00,0x00,0x00,0x00,0x00,0x00,0x80,0x00,
 0x00,0x00,0x00,0x00,0x00,0x00,0x00,0x00,0x00,0x00,0x00,0x00,0x00,0x00,0x00,
 0x00,0x00,0x00,0x00,0x00,0x00,0x00,0x00,0x00,0x80,0x00,0x00,0x00,0x00,0x00,
 0x00,0x00,0x00,0x00,0x00,0x00,0x00,0x00,0x00,0x54,0x35,0x00,0x00,0x00,0x00,
 0x00,0x00,0x00,0x00,0x00,0x80,0x00,0x00,0x00,0x40,0x15,0x00,0x80,0x0a,0x00,
 0x00,0x00,0x00,0x00,0xa0,0xa5,0xaa,0x0a,0x00,0x00,0x00,0x00,0x00,0x00,0x00,
 0x00,0x80,0x00,0x00,0x00,0xa8,0x6a,0x55,0xb5,0xd4,0x00,0x00,0x00,0x00,0x00,
 0x55,0x5a,0x5d,0xb5,0x00,0x00,0x80,0x02,0x00,0x00,0x00,0x00,0x80,0x00,0x00,
 0x00,0x93,0xaa,0xaa,0x4a,0x55,0x07,0x00,0x00,0x00,0x80,0xa8,0xfd,0x5f,0xd5,
 0x01,0x00,0x50,0x69,0x5b,0x00,0x00,0x00,0x80,0x00,0x00,0x00,0xca,0xaa,0xb5,
 0xb7,0xaa,0x0a,0x00,0x00,0x00,0x20,0xd5,0xff,0xff,0x55,0x03,0x00,0x40,0x2d,
 0xa9,0x03,0x00,0x00,0x80,0x00,0x00,0x00,0x5d,0x55,0xff,0xdf,0x55,0x3d,0x00,
 0x00,0x00,0x94,0xea,0xff,0x7f,0xab,0x07,0x00,0xaa,0xfe,0xaa,0x06,0x00,0x00,
 0x80,0x00,0x00,0x00,0x6a,0xdb,0xff,0xf9,0x6f,0x6b,0x00,0x00,0x00,0x40,0xfa,
 0x0f,0xc0,0xdf,0x07,0x80,0x52,0xff,0x57,0x1d,0x00,0x00,0x80,0x00,0x00,0x00,
 0xac,0xed,0x1f,0xc0,0xbf,0xba,0x01,0x00,0x00,0xaa,0xfd,0x53,0x55,0x6b,0x0f,
 0x00,0xd4,0x9f,0xaa,0x36,0x00,0x00,0x80,0x00,0x00,0x00,0x50,0xb5,0x27,0x12,
 0xd7,0xd6,0x02,0x00,0x00,0xa9,0xfe,0xa4,0x24,0xad,0x0f,0xa0,0xea,0x07,0x6d,
 0x5b,0x00,0x00,0x80,0x00,0x00,0x00,0xa8,0xea,0x97,0x40,0x7c,0xb5,0x07,0x00,
 0x80,0x6a,0xbf,0x12,0x00,0xf6,0x1f,0x00,0xf5,0xaf,0xaa,0x7d,0x00,0x00,0x80,
 0x00,0x00,0x00,0x50,0xdd,0x4b,0x0a,0x54,0x5b,0x0d,0x00,0x40,0xbc,0xbe,0x4a,
 0x02,0xdc,0x2e,0xa0,0xec,0x53,0xaa,0xea,0x00,0x00,0x80,0x00,0x00,0x00,0x50,
 0xeb,0x2f,0x00,0xb0,0xed,0x0f,0x00,0x20,0xeb,0xbf,0x12,0x00,0x78,0x1f,0x50,
 0xfb,0x8b,0xd4,0xf6,0x01,0x00,0x80,0x00,0x00,0x00,0x48,0xd5,0x57,0x00,0xd0,
 0x2a,0x1d,0x00,0x00,0xad,0xbf,0x04,0x00,0x50,0x5f,0x50,0xfd,0x2a,0x54,0xdb,
 0x01,0x00,0x80,0x00,0x00,0x00,0xa8,0xee,0x0b,0x00,0xe0,0xda,0x3e,0x00,0xa8,
 0xd6,0xaf,0x02,0x00,0x50,0x2f,0x60,0xfb,0x15,0xac,0xed,0x03,0x00,0x80,0x00,
 0x00,0x00,0xa8,0xb5,0x2f,0x00,0x40,0xad,0x75,0x00,0x40,0xeb,0xaf,0x00,0x00,
 0x60,0x9f,0xb0,0x7e,0x15,0xd0,0xf5,0x03,0x00,0x80,0x00,0x00,0x00,0xa8,0xd6,
 0x07,0x00,0x80,0xd5,0x7e,0x00,0xa8,0xf5,0x2f,0x01,0x00,0xa0,0x5f,0x70,0x7f,
 0x05,0x54,0xd4,0x07,0x00,0x80,0x00,0x00,0x00,0xa8,0xba,0x2f,0x00,0x40,0x75,
 0xf5,0x00,0xa4,0xec,0x57,0x00,0x00,0xc0,0x2f,0xe0,0xff,0x12,0xa8,0xfb,0x03,
 0x00,0x80,0x00,0x00,0x00,0x50,0xd7,0x17,0x00,0x80,0xaa,0xfb,0x00,0xd0,0xf6,
 0x53,0x00,0x00,0x40,0x97,0xa0,0x3f,0x05,0xa4,0xd6,0x0b,0x00,0x80,0x00,0x00,
 0x00,0xa8,0xfb,0x0f,0x00,0x00,0xb5,0xec,0x01,0x54,0xdb,0x15,0x00,0x00,0x00,
 0x4b,0x80,0x5f,0x01,0xa8,0xfa,0x0b,0x00,0x80,0x00,0x00,0x00,0xa8,0xaa,0x2f,
 0x00,0x80,0x56,0xf7,0x01,0x6a,0xf5,0x4b,0x00,0x00,0x00,0x20,0x00,0xa0,0x04,
 0x54,0xeb,0x15,0x00,0x80,0x00,0x00,0x00,0xa0,0xda,0x27,0x00,0x00,0xda,0xfa,
 0x03,0xa8,0xeb,0x15,0x00,0x00,0x00,0x40,0x00,0x50,0x01,0xa4,0xfd,0x07,0x00,
 0x80,0x00,0x00,0x00,0x98,0xea,0x17,0x00,0x00,0xab,0xd6,0x05,0xd4,0xfc,0x0b,
 0x00,0x00,0x00,0x10,0x00,0x08,0x00,0x50,0xf5,0x13,0x00,0x80,0x00,0x00,0x00,
 0xa0,0xd6,0x57,0x00,0x00,0x69,0xfb,0x03,0xaa,0xea,0x15,0x00,0x00,0x00,0x00,
 0x00,0xa0,0x00,0xfc,0xfd,0x0a,0x00,0x80,0x00,0x00,0x00,0xa8,0xfa,0x0b,0x00,
 0x00,0xad,0xea,0x05,0xa8,0xf6,0x07,0x00,0x00,0x00,0x00,0x00,0x00,0x00,0x7c,
 0xff,0x0b,0x00,0x80,0x00,0x00,0x00,0x50,0xd5,0x2b,0x00,0x00,0xd4,0xfd,0x05,
 0xa4,0xfa,0x11,0x00,0x00,0x00,0x00,0x00,0x00,0x00,0x8c,0x7d,0x09,0x00,0x80,
 0x00,0x00,0x00,0xa8,0xee,0x17,0x00,0x00,0x6a,0xd6,0x0b,0xd2,0xf6,0x0b,0x00,
 0x00,0x00,0x00,0x00,0x00,0x00,0xad,0x7e,0x05,0x00,0x80,0x00,0x00,0x00,0x58,
 0xd5,0x0b,0x00,0x00,0xaa,0xf5,0x05,0x55,0xfb,0x05,0x00,0x00,0x00,0x00,0x00,
 0x80,0x00,0xce,0x7f,0x15,0x00,0x80,0x00,0x00,0x00,0xa8,0xf6,0x2f,0x00,0x00,
 0x54,0xed,0x13,0x6a,0xf5,0x15,0x00,0x00,0x00,0x00,0x00,0x60,0x8d,0xa7,0x9f,
 0x02,0x00,0x80,0x00,0x00,0x00,0x00,0xdb,0x07,0x00,0x00,0xd6,0xf6,0x0b,0xa9,
 0xfd,0x02,0x00,0x00,0x00,0x00,0x00,0x10,0xaa,0xd3,0x6f,0x01,0x00,0x80,0x00,
 0x00,0x00,0xd0,0xea,0x17,0x00,0x00,0xe2,0xdb,0x07,0xf6,0xf6,0x0b,0x00,0x00,
 0x00,0x00,0x00,0xa8,0xd5,0xd3,0x97,0x04,0x00,0x80,0x00,0x00,0x00,0x28,0xdb,
 0x13,0x00,0x00,0x78,0xeb,0x13,0x5d,0xfb,0x04,0x00,0x00,0x00,0x00,0x00,0xe8,
 0x6f,0x6b,0xaf,0x00,0x00,0x80,0x00,0x00,0x00,0x50,0xed,0x0f,0x00,0x00,0xdd,
 0xda,0x8f,0x2e,0xf5,0x05,0x00,0x00,0x00,0x00,0x00,0xf0,0xff,0xb5,0x5f,0x00,
 0x00,0x80,0x00,0x00,0x00,0x50,0xd5,0x27,0x00,0x00,0x5e,0xea,0x83,0xa7,0xff,
 0x05,0x00,0x00,0x00,0x00,0x00,0xf0,0xff,0x5f,0x35,0x00,0x00,0x80,0x00,0x00,
 0x00,0xa8,0xf6,0x17,0x00,0x00,0x44,0xfd,0x97,0xeb,0xf7,0x03,0x00,0x00,0x00,
 0x00,0x00,0x00,0xb8,0xaf,0xbf,0x00,0x00,0x80,0x00,0x00,0x00,0x50,0xab,0x0b,
 0x00,0x00,0xa2,0xfe,0x8b,0xe3,0xf9,0x09,0x00,0x00,0x00,0x00,0x00,0x00,0xa4,
 0xb4,0x6a,0x00,0x00,0x80,0x00,0x00,0x00,0x48,0xfd,0x17,0x00,0x00,0xd5,0xef,
 0xab,0x78,0xea,0x07,0x00,0x00,0x00,0x00,0x00,0x00,0x49,0x5a,0xf5,0x01,0x00,
 0x80,0x00,0x00,0x00,0xa0,0xfe,0x0b,0x00,0x00,0xa8,0xe7,0x8b,0x64,0xfd,0x01,
 0x00,0x00,0x00,0x00,0x00,0x00,0x00,0xaa,0xad,0x01,0x00,0x80,0x00,0x00,0x00,
 0x58,0xcf,0x27,0x00,0x00,0xd2,0xf3,0x4b,0x5a,0xfd,0x0b,0x00,0x00,0x00,0x00,
 0x00,0x00,0x48,0xa8,0xd6,0x03,0x00,0x80,0x00,0x00,0x00,0xb0,0xd7,0x17,0x00,
 0x00,0x68,0xe9,0x17,0xee,0xee,0x05,0x00,0x00,0x00,0x00,0x00,0x00,0x00,0xa8,
 0x7a,0x07,0x00,0x80,0x00,0x00,0x00,0x90,0xe7,0x0b,0x00,0x00,0x56,0xfd,0x09,
 0x9e,0xfe,0x05,0x00,0x00,0x00,0x00,0x00,0x00,0x00,0x50,0xab,0x0f,0x00,0x80,
 0x00,0x00,0x00,0x50,0xd2,0x17,0x00,0x00,0xba,0xf5,0x17,0xc3,0xea,0x0a,0x00,
 0x00,0x00,0x00,0x00,0x00,0x00,0x50,0xd5,0x0e,0x00,0x80,0x00,0x00,0x00,0xa8,
 0xfa,0x0b,0x00,0x00,0x5d,0xfb,0x09,0x54,0xeb,0x05,0x00,0x00,0x00,0x00,0x00,
 0x00,0x00,0xa0,0xba,0x0f,0x00,0x80,0x00,0x00,0x00,0x40,0xd7,0x27,0x00,0x00,
 0xc6,0xfd,0x05,0x55,0xf5,0x05,0x00,0x00,0x00,0x00,0x00,0x00,0x00,0x50,0x57,
 0x1f,0x00,0x80,0x00,0x00,0x00,0xb0,0xed,0x17,0x00,0x00,0x66,0x7d,0x15,0xb6,
 0xdd,0x07,0x00,0x00,0x00,0x0d,0x00,0x00,0x00,0xa0,0xea,0x1f,0x00,0x80,0x00,
 0x00,0x00,0x48,0xe5,0x0b,0x00,0x80,0xd2,0x7d,0x05,0xd4,0xea,0x0b,0x00,0x00,
 0x00,0x0c,0x80,0x02,0x00,0xb0,0x5a,0x4f,0x00,0x80,0x00,0x00,0x00,0xa8,0xda,
 0x17,0x00,0x00,0x51,0xfe,0x09,0x5e,0xb7,0x07,0x00,0x00,0x00,0x1d,0xa0,0x06,
 0x00,0x40,0xad,0x3f,0x00,0x80,0x00,0x00,0x00,0xa8,0xff,0x0b,0x00,0x80,0x6c,
 0x7f,0x04,0x68,0xed,0x0b,0x00,0x00,0x40,0x1c,0xd0,0x0d,0x00,0xa0,0xd6,0x4f,
 0x00,0x80,0x00,0x00,0x00,0xd0,0xca,0x2f,0x00,0x00,0xb2,0x7d,0x03,0xb8,0xb5,
 0x07,0x00,0x00,0x80,0x1e,0x54,0x1e,0x00,0x50,0x6a,0x2f,0x00,0x80,0x00,0x00,
 0x00,0x88,0xaa,0x07,0x00,0x40,0xd5,0xbf,0x00,0xd8,0x56,0x1f,0x00,0x00,0x40,
 0x1e,0xa0,0x3e,0x00,0x20,0xbb,0x5f,0x00,0x80,0x00,0x00,0x00,0x68,0xd9,0x1f,
 0x00,0x20,0x6d,0x5f,0x05,0xf0,0xea,0x0f,0x00,0x00,0x20,0x5f,0x4a,0x7d,0x00,
 0x40,0xd5,0x2f,0x00,0x80,0x00,0x00,0x00,0x90,0x6d,0x0f,0x00,0x80,0xda,0xaf,
 0x00,0x40,0xb7,0x1a,0x00,0x00,0x90,0x9e,0xa8,0x76,0x00,0xa8,0xed,0x97,0x00,
 0x80,0x00,0x00,0x00,0xa0,0xb6,0x2f,0x00,0x20,0xf5,0x5f,0x02,0xc0,0x5a,0x3f,
 0x00,0x00,0x40,0x5f,0x5c,0xfb,0x00,0x90,0xf6,0x5f,0x00,0x80,0x00,0x00,0x00,
 0x50,0xd5,0x17,0x00,0xa8,0xfe,0xa7,0x00,0x80,0xad,0x55,0x00,0x00,0x54,0xbf,
 0xa8,0xed,0x00,0xa0,0xfa,0x27,0x00,0x80,0x00,0x00,0x00,0x90,0xb6,0x2e,0x00,
 0x44,0xfd,0x5b,0x00,0x40,0xf7,0xfe,0x00,0x00,0x90,0x5f,0xb4,0xf6,0x01,0x54,
 0xed,0x2b,0x00,0x80,0x00,0x00,0x00,0xa8,0xda,0x3f,0x80,0xb2,0xff,0xa5,0x00,
 0x00,0x5f,0x53,0x01,0x00,0x65,0x9f,0xd8,0xba,0x03,0x48,0xff,0x15,0x00,0x80,
 0x00,0x00,0x00,0x94,0xad,0xaa,0x50,0xd4,0x7f,0x15,0x00,0x00,0xbd,0xbd,0x07,
 0x00,0xd2,0x4f,0xe0,0xd6,0x05,0xd2,0xfa,0x4b,0x00,0x80,0x00,0x00,0x00,0xd6,
 0x76,0xb7,0x4a,0xfb,0xbf,0x2a,0x00,0x00,0xfc,0xd6,0x2a,0x40,0xe9,0xaf,0x70,
 0x7b,0x5b,0xa9,0xff,0x14,0x00,0x80,0x00,0x00,0x80,0xe2,0xdf,0xad,0xaa,0xff,
 0x4f,0x05,0x00,0x00,0xf0,0xff,0xb6,0x2a,0xfc,0x57,0xc0,0xd7,0xaa,0xf4,0xff,
 0x0a,0x00,0x80,0x00,0x00,0x40,0xfd,0xff,0x7f,0xfb,0xff,0x53,0x09,0x00,0x00,
 0xc0,0xbf,0x5b,0xa5,0xff,0x2b,0x40,0xff,0x4b,0xfe,0x3f,0x05,0x00,0x80,0x00,
 0x00,0x80,0xff,0xff,0xff,0xff,0xbf,0xa8,0x00,0x00,0x00,0x40,0xff,0xf7,0xfb,
 0xff,0xab,0x80,0xff,0xbf,0xff,0xaf,0x12,0x00,0x80,0x00,0x00,0x80,0xfe,0xff,
 0xff,0xff,0x82,0x16,0x00,0x00,0x00,0x00,0xfc,0xff,0xff,0xff,0x14,0x00,0xfe,
 0xff,0xff,0xab,0x02,0x00,0x80,0x00,0x00,0x00,0x00,0xa8,0xf6,0x05,0x54,0x49,
 0x01,0x00,0x00,0x00,0x52,0xff,0xf7,0x17,0x4a,0x00,0xb0,0xff,0x5f,0xaa,0x00,
 0x00,0x80,0x00,0x00,0x00,0x00,0xa5,0x2a,0x25,0x29,0x04,0x00,0x00,0x00,0x00,
 0x40,0x55,0x00,0xc8,0x12,0x00,0x80,0xf4,0x82,0x2a,0x02,0x00,0x80,0x00,0x00,
 0x00,0xa0,0x12,0x49,0x49,0x02,0x01,0x00,0x00,0x00,0x00,0x90,0x88,0x0a,0x22,
 0x05,0x00,0x50,0x12,0x51,0x85,0x00,0x00,0x80,0x00,0x00,0x00,0x00,0x44,0x20,
 0x12,0x20,0x00,0x00,0x00,0x00,0x00,0x00,0x52,0x44,0x94,0x00,0x00,0x00,0xa9,
 0x2a,0x10,0x00,0x00,0x80,0x00,0x00,0x00,0x00,0x00,0x04,0x80,0x00,0x00,0x00,
 0x00,0x00,0x00,0x00,0x00,0x11,0x00,0x00,0x00,0x00,0x00,0x04,0x01,0x00,0x00,
 0x80,0x00,0x00,0x00,0x00,0x00,0x00,0x00,0x00,0x00,0x00,0x00,0x00,0x00,0x00,
 0x00,0x00,0x20,0x00,0x00,0x00,0x00,0x20,0x00,0x00,0x00,0x80,0x00,0x00,0x00,
 0x00,0x00,0x00,0x00,0x00,0x00,0x00,0x00,0x00,0x00,0x00,0x00,0x00,0x00,0x00,
 0x00,0x00,0x00,0x00,0x00,0x00,0x00,0x80,0x00,0x00,0x00,0x00,0x00,0x00,0x00,
 0x00,0x00,0x00,0x00,0x00,0x00,0x00,0x00,0x00,0x00,0x00,0x00,0x00,0x00,0x00,
 0x00,0x00,0x00,0x80,0x00,0x00,0x00,0x00,0x00,0x00,0x00,0x00,0x00,0x00,0x00,
 0x00,0x00,0x00,0x00,0x00,0x00,0x00,0x00,0x00,0x00,0x00,0x00,0x00,0x00,0x80,
 0x00,0x00,0x00,0x00,0x00,0x00,0x00,0x00,0x00,0x00,0x00,0x00,0x00,0x00,0x00,
 0x00,0x00,0x00,0x00,0x00,0x00,0x00,0x00,0x00,0x00,0x80,0x00,0x00,0x00,0x00,
 0x00,0x00,0x00,0x00,0x00,0x00,0x00,0x00,0x00,0x00,0x00,0x00,0x00,0x00,0x00,
 0x00,0x00,0x00,0x00,0x00,0x00,0x80,0x00,0x00,0x00,0x00,0x00,0x00,0x00,0x00,
 0x00,0x00,0x00,0x00,0x00,0x00,0x00,0x00,0x00,0x00,0x00,0x00,0x00,0x00,0x00,
 0x00,0x00,0x80,0x00,0x00,0x00,0x00,0x00,0x00,0x00,0x00,0x00,0x00,0x00,0x00,
 0x00,0x00,0x00,0x00,0x00,0x00,0x00,0x00,0x00,0x00,0x00,0x00,0x00,0x80,0x00,
 0x00,0x00,0x00,0x00,0x00,0x00,0x00,0x00,0x00,0x00,0x00,0x00,0x00,0x00,0x00,
 0x00,0x00,0x00,0x00,0x00,0x00,0x00,0x00,0x00,0x80,0x00,0x00,0x00,0x00,0x00,
 0x00,0x00,0x00,0x00,0x00,0x00,0x00,0x00,0x00,0x00,0x00,0x00,0x00,0x00,0x00,
 0x00,0x00,0x00,0x00,0x00,0x80,0x00,0x00,0x00,0x00,0x00,0x00,0x00,0x00,0x00,
 0x00,0x00,0x00,0x00,0x00,0x00,0x00,0x00,0x00,0x00,0x00,0x00,0x00,0x00,0x00,
 0x00,0x80,0x00,0x00,0x00,0x00,0x00,0x00,0x00,0x00,0x00,0x00,0x00,0x00,0x00,
 0x00,0x00,0x00,0x00,0x00,0x00,0x00,0x00,0x00,0x00,0x00,0x00,0x80,0x00,0x00,
 0x00,0x00,0x00,0x00,0x00,0x00,0x00,0x00,0x00,0x00,0x00,0x00,0x00,0x00,0x00,
 0x00,0x00,0x00,0x00,0x00,0x00,0x00,0x00,0x80,0x00,0x00,0x00,0x00,0x00,0x00,
 0x00,0x00,0x00,0x00,0x00,0x00,0x00,0x00,0x00,0x00,0x00,0x00,0x00,0x00,0x00,
 0x00,0x00,0x00,0x00,0x80,0x00,0x00,0x00,0x00,0x00,0x00,0x00,0x00,0x00,0x00,
 0x00,0x00,0x00,0x00,0x00,0x00,0x00,0x00,0x00,0x00,0x00,0x00,0x00,0x00,0x00,
 0x80,0x00,0x00,0x00,0x00,0x00,0x00,0x00,0x00,0x00,0x00,0x00,0x00,0x00,0x00,
 0x00,0x00,0x00,0x00,0x00,0x00,0x00,0x00,0x00,0x00,0x00,0x80};
