/* XPM */
static char *exit[]={
"40 32 45 1",
"j c #000000",
"m c #009999",
"l c #00ffff",
"Q c #050505",
"D c #171717",
"e c #191919",
"K c #1e1e1e",
"q c #1f5c5c",
"g c #262626",
"b c #2e2e2e",
"v c #333300",
"p c #339999",
"A c #3d0000",
"L c #3d3d3d",
"h c #444444",
"s c #4c0000",
"I c #4c4c4c",
"N c #5b5b5b",
"E c #636363",
"k c #650000",
"u c #707000",
"i c #727272",
"O c #7a7a7a",
"r c #7f0000",
"C c #818181",
"f c #828282",
"w c #893d00",
"P c #898989",
"J c #919191",
"y c #932900",
"d c #989898",
"n c #999900",
"H c #999999",
"t c #9d5100",
"B c #a0a0a0",
"G c #a8a8a8",
"M c #afafaf",
"F c #b7b7b7",
"c c #bfbfbf",
"x c #d6d600",
"a c #eaeaea",
"z c #efe000",
"# c #f2f2f2",
". c #fcfcfc",
"o c #ffff00",
".#####################################ab",
"#cccccccccccccccccccccccccccccccccccccde",
"#cccccccccccccccccccccccccccccccccccccde",
"#ccccccccccccfgggggggggghcccccccccccccde",
"#ccccccccccccijklmnooooogcccccccccccccde",
"#ccccccccccccijkpqnooooogcccccccccccccde",
"#ccccccccccccijkrsnooooogcccccccccccccde",
"#ccccccccccccijkrsnooooogcccccccccccccde",
"#ccccccccccccijkrtuvoooogcccccccccccccde",
"#ccccccccccccijkrsnooooogcccccccccccccde",
"#ccccccccccccijkrsnooooogcccccccccccccde",
"#ccccccccccccijkrsnooooogcccccccccccccde",
"#ccccccccccccijkrsnooooogcccccccccccccde",
"#ccccccccccccijkrsnooooogcccccccccccccde",
"#ccccccccccccijkrwxooooogcccccccccccccde",
"#ccccccccccccijkyzoooooogcccccccccccccde",
"#ccccccccccccijkoooooooogcccccccccccccde",
"#ccccccccccccijAnnnnnnnngcccccccccccccde",
"#ccccccccccccBiiiiiiiiiiCcccccccccccccde",
"#cccccccccccccccccccccccccccccccccccccde",
"#cccccccccccciDggEccccchFGccccccccccccde",
"#cccccccccccciicccccccccHIccccccccccccde",
"#cccccccccccciiccccEcJJEHKJcccccccccccde",
"#cccccccccccciDghccgciigHLMcccccccccccde",
"#cccccccccccciicccccjIcgHIccccccccccccde",
"#cccccccccccciiccccCINBgHIccccccccccccde",
"#ccccccccccccibIIOcgciigMEJcccccccccccde",
"#ccccccccccccMHHHGcBcMMBcMMcccccccccccde",
"#cccccccccccccccccccccccccccccccccccccde",
"#cccccccccccccccccccccccccccccccccccccde",
"adddddddddddddddddddddddddddddddddddddPe",
"beeeeeeeeeeeeeeeeeeeeeeeeeeeeeeeeeeeeeeQ"};
