/* XPM */
static char * gohist_xpm[] = {
"80 80 35 1",
" 	c #0000B1B1FFFF",
".	c #0404B3B3FFFF",
"X	c #0808B6B6FFFF",
"o	c #0C0CB8B8FFFF",
"O	c #1010BBBBFFFF",
"+	c #1414BEBEFFFF",
"@	c #232333338F8F",
"#	c #1818C0C0FFFF",
"$	c #1C1CC3C3FFFF",
"%	c #2020C5C5FFFF",
"&	c #2424C8C8FFFF",
"*	c #2828CBCBFFFF",
"=	c #2C2CCDCDFFFF",
"-	c #3030D0D0FFFF",
";	c #3434D2D2FFFF",
":	c #3838D5D5FFFF",
">	c #3D3DD8D8FFFF",
",	c #4141DADAFEFE",
"<	c #4545DDDDFFFF",
"1	c #4949DFDFFFFF",
"2	c #4D4DE2E2FFFF",
"3	c #5151E4E4FEFE",
"4	c #5555E7E7FFFF",
"5	c #5959EAEAFFFF",
"6	c #5D5DECECFFFF",
"7	c #6161EFEFFFFF",
"8	c #6565F2F2FFFF",
"9	c #6969F4F4FFFF",
"0	c #000000000000",
"q	c #6D6DF7F7FFFF",
"w	c #FFFFFFFF0000",
"e	c #7171F9F9FFFF",
"r	c #7575FCFCFFFF",
"t	c #7A7AFFFFFFFF",
"y	c #FFFF00000000",
"                                                                                ",
"                                .................                               ",
"                            .....XXXXXXXXXXXXXXX.....                           ",
"                         ....XXXXXXXoooooooooXXXXXXX....                        ",
"                       ...XXXXXoooooooooOoooooooooXXXXX...                      ",
"                     ...XXXXooooOOOOOOOOOOOOOOOOOooooXXXX...                    ",
"                   ...XXXooooOOOOO+++++++++++++OOOOOooooXXX...                  ",
"                  .@@@@@@@@@@O+@@@++#########++++++OOOOoooXXX..                 ",
"                 ..@@@@@@@@@@++@@@##@@@###########++++OOOoooXX..                ",
"               ..XX@@@OOO+++#####$$$@@@$$$$$$$$$#####+++OOOooXXX..              ",
"              ..XXo@@@O+++###$$$$$%%@@@%%%%%%%%$$$$$###+++OOoooXX..             ",
"             ..XXoo@@@++###$$$$@@@%@@@@@@&&&&%%%%%$$$$###++OOOooXX..            ",
"            ..XXooO@@@###$$$%%%@@@&@@@@@@&&&&&&&&%%%%$$$###++OOooXX..           ",
"           ..XXooOO@@@@@@@@@%&&@@@**@@@*********&&&&%%%$$$##++OOooXX..          ",
"          ..XXooOO+@@@@@@@@@&&*@@@*=@@@=======*****&&&%%%$$##++OOooXX..         ",
"         ..XXooO++#@@@$%%&&&***@@@==@@@------=====***&&&%%$$###++OooXX..        ",
"         .XXooO++##@@@%%&&***==@@@--@@@----------===***&&%%%$$##++OooXX.        ",
"        .XXooOO+##$@@@&&&**===-@@@;;@@@;;;;;;;;----===**&&&%%$$##+OOooXX.       ",
"       ..XooOO+##$$@@@&**===---@@@;:@@@:::::::;;;;---===**&&%%$$##+OOooX..      ",
"      ..XXoOO++#$$%@@@**==---;;@@@::@@@@@>>>:::::;;;---==**&&%%$$#++OOoXX..     ",
"      .XXooO++##$%%@@@*==--;;;:@@@>>>@@@@>>>>>>>:::;;;--==**&&%%$##++OooXX.     ",
"     ..XooOO+##$%%&&**==--;;:::>>>,,,,,,,,,,,,,>>>:::;;--==**&&%%$##+OOooX..    ",
"     .XXoOO+##$$%&&**==--;;::>>>,,,,<<<<<<<<<,,,,>>>::;;--==**&&%$$##+OOoXX.    ",
"    ..XooO++#$$%%&**==--;;::>>,,,<<<<1111111<<<<,,,>>::;;--==**&%%$$#++OooX..   ",
"    .XXoOO+##$%%&&*==--;::>>>,,<<<1111111111111<<<,,>>>::;--==*&&%%$##+OOoXX.   ",
"   ..XooO++#$$%&&*==--;;:>>,,<<<11122222222222111<<<,,>>:;;--==*&&%$$#++OooX..  ",
"   .XXoOO+##$%%&**=--;;:>>,,<<111222333333333222111<<,,>>:;;--=**&%%$##+OOoXX.  ",
"   .XXoO++#$$%&&*==-;;::>,,<<11222333344444333322211<<,,>::;;-==*&&%$$#++OoXX.  ",
"  ..XooO+##$%%&**=--;::>>,<<1122333444444444443332211<<,>>::;--=**&%%$##+OooX.. ",
"  .XXoOO+#$$%&&*==-;;:>>,<<112233444555555555444332211<<,>>:;;-==*&&%$$#+OOoXX. ",
"  .XXoO++#$$%&**=--;::>,,<11223344555666666655544332211<,,>::;--=**&%$$#++OoXX. ",
"  .XooO+##$%%&*==-;;:>>,<<12233445566677777666554433221<<,>>:;;-==*&%%$##+OooX. ",
" ..XoOO+##$%&&*=--;::>,,<1123344566677777777766654433211<,,>::;--=*&&%$##+OOoX..",
" .XXoOO+#$$%&**=--;:>>,<<1223445667778888888777665443221<<,>>:;--=**&%$$#+OOoXX.",
" .XXoO++#$%%&**=-;;:>,,<112334556778889999988800000000000000000;-=**&%%$#++OoXX.",
" .XXoO++#$%%&*==-;::>,,<122344566788999qqq999800000000000000000;-==*&%%$#++OoXX.",
" .XooO+##$%&&*=--;::>,<<1233455677899qqqqqqq9900wwwwwwwwwwwww00;--=*&&%$##+OooX.",
" .XooO+##$%&&*=--;:>>,<1123345667889qqeeeeeqq900wwwwwwwwwwwww00;--=*&&%$##+OooX.",
" .XooO+##$%&&*=--;:>>,<1123445677899qeerrreeq900wwwwwwwwwwwww00;--=*&&%$##+OooX.",
" .XooO+##$%&&*=--;:>>,<112344567789qqerrtrreqq00wwwwwwwwwwwww00;--=*&&%$##+OooX.",
" .XoOO+##$%&**=--;:>>,<112344567789qqertttreqq00wwwwwwwwwwwww00;--=**&%$##+OOoX.",
" .XooO+##$%&&*=--;:>>,<112344567789qqerrtrreqq00wwwwwwwwwwwww00;--=*&&%$##+OooX.",
" .XooO+##$%&&*=--;:>>,<1123445677899qeerrreeq900wwwwwwwwwwwww00;--=*&&%$##+OooX.",
"00000000000000000;:>>,<1123345667889qqeeeeeqq900wwwwwwwwwwwww00;--=*&&%$##+OooX.",
"00000000000000000;::>,<<123345500000000000000000wwwwwwwwwwwww00;--=*&&%$##+OooX.",
"0wyywwwwwwwwwww00;::>,,<122344500000000000000000wwwwwwwwwwwww00;-==*&%%$#++OoXX.",
"yyyyyywwwwwwwww00;;:>,,<112334500wwwwwwwwwwwww00wwwwwwwwwwwww00;-=**&%%$#++OoXX.",
"yyyyyywwwwwwwww00-;:>>,<<12234400wwwwwwwwwwwww00wwwwwwwwwwwww00--=**&%$$#+OOoXX.",
"yyyyyywwwwwwwww00-;::>,,<11233400wwwwwwwwwwwww00wwwwwwwwwwwww00--=*&&%$##+OOoX..",
"yyyyyywwwwwwwww00-;;:>>,<<1223300wwwwwwwwwwwww00wwwwwwwwwwwww00-==*&%%$##+OooX. ",
"yyyyyywwwwwwwww00--;::>,,<1122300wwwwyyyyyyyyyy0wwwwwwwwwwwww00-=**&%$$#++OoXX. ",
"yyyyywwwwwwwwww00=-;;:>>,<<112200wwyyyyyyyyyyyyyywwwwwwwwwwww000000000000000XX. ",
"yyyyywwwwwwwwww00=--;::>>,<<11200wyyyyyyyyyyyyyyyyyywwwwwwwww000000000000000X.. ",
"yyyyywwwwwwwwww00==-;;::>,,<<1100yyyyyyyyyyyyyyyyyyyyywwwwwww00wwwwwwwwwww00X.  ",
"yyyyywwwwwwwwww00*=--;;:>>,,<<1yyyyyyyyyyyyyyyyyyyyyyyyywwwww00wwwwwwwwwww00X.  ",
"yyyyywwwwwwwwww00*==--;;:>>,,<yyyyyyyyyyyyyyyyyyyyyyyyyyywwww00wwwwwwwwwww00..  ",
"yyyyyywwwwwwwww00&*==--;::>>>yyyyyyyyyyywwwwwyyyyyyyyyyyyyyww00wwwwwwwwwww00.   ",
"yyyyyywwwwwwwww00&**==--;;::yyyyyyyyyywwwwwwww0yyyyyyyyyyyyyw00wwwwwwwwwww00.   ",
"yyyyyywwwwwwwww00&&**==--;;yyyyyyyyyywwwwwwwww00wwyyyyyyyyyyyy0wwwwwwwwwww00    ",
"yyyyyywwwwwwwww00000000000yyyyyyyyyywwwwwwwwww00wwwwyyyyyyyyyyywwwwwwwwwww00    ",
"yyyyyywwwwwwwww0000000000yyyyyyyyywwwwwwwwwwww00wwwwwyyyyyyyyyyywwwwwwwwww00    ",
"yyyyyyywwwwwwww00wwwwwwwyyyyyyyyywwwwwwwwwwwww00wwwwwwwyyyyyyyyyyywwwwwwww00    ",
"yyyyyyywwwwwwww00wwwwwwyyyyyyyyyywwwwwwwwwwwww00wwwwwwwwyyyyyyyyyyywwwwwww00    ",
"0yyyyyyywwwwwww00wwwwwwyyyyyyyy00wwwwwwwwwwwww00wwwwwwwwwwyyyyyyyyyyywwwww00    ",
"0yyyyyyywwwwwww00wwwwyyyyyyyyyy00wwwwwwwwwwwww00wwwwwwwwwwwyyyyyyyyyyywwww00    ",
"0yyyyyyyywwwwww00wwwyyyyyyyyyw000wwwwwwwwwwwww00wwwwwwwwwwwwyyyyyyyyyyyyww00    ",
"0wyyyyyyyywwwww00wwwyyyyyyyyyw000wwwwwwwwwwwww00wwwwwwwwwwwww0yyyyyyyyyyyw00    ",
"0wyyyyyyyyywwww00wwyyyyyyyyyww000wwwwwwwwwwwww00wwwwwwwwwwwww00yyyyyyyyyyyy0    ",
"0wwyyyyyyyyywww00yyyyyyyyyywww000wwwwwwwwwwwww00wwwwwwwwwwwww00wwyyyyyyyyyyy    ",
"0wwyyyyyyyyyyyyyyyyyyyyyyywwww000wwwwwwwwwwwww00wwwwwwwwwwwww00wwwyyyyyyyyyyyy  ",
"0wwwyyyyyyyyyyyyyyyyyyyyywwwww000wwwwwwwwwwwww00wwwwwwwwwwwww00wwwwwyyyyyyyyyyy ",
"0wwwwyyyyyyyyyyyyyyyyyyywwwwww000wwwwwwwwwwwww00wwwwwwwwwwwww00wwwwwwyyyyyyyyyyy",
"0wwwwwyyyyyyyyyyyyyyyyywwwwwww000wwwwwwwwwwwww00wwwwwwwwwwwww00wwwwwwwyyyyyyyyyy",
"0wwwwwwyyyyyyyyyyyyyywwwwwwwww000wwwwwwwwwwwww00wwwwwwwwwwwww00wwwwwwwwwyyyyyyyy",
"0wwwwwwwwyyyyyyyyyyywwwwwwwwww000wwwwwwwwwwwww00wwwwwwwwwwwww00wwwwwwwwwwyyyyyyy",
"0wwwwwwwwwwwwww00wwwwwwwwwwwww000wwwwwwwwwwwww00wwwwwwwwwwwww00wwwwwwwwwwwyyyyyy",
"0wwwwwwwwwwwwww00wwwwwwwwwwwww000wwwwwwwwwwwww00wwwwwwwwwwwww00wwwwwwwwwww00    ",
"0wwwwwwwwwwwwww00wwwwwwwwwwwww000wwwwwwwwwwwww00wwwwwwwwwwwww00wwwwwwwwwww00    ",
"0wwwwwwwwwwwwww000000000000000000wwwwwwwwwwwww00wwwwwwwwwwwww00wwwwwwwwwww00    ",
"000000000000000000000000000000000000000000000000wwwwwwwwwwwww00wwwwwwwwwww00    "};
