/* XPM */
static char * gohist_xpm[] = {
"80 80 33 1",
" 	c #0000B1B1FFFF",
".	c #0404B3B3FFFF",
"X	c #0808B6B6FFFF",
"o	c #0C0CB8B8FFFF",
"O	c #232333338F8F",
"+	c #1010BBBBFFFF",
"@	c #1414BEBEFFFF",
"#	c #1818C0C0FFFF",
"$	c #1C1CC3C3FFFF",
"%	c #2020C5C5FFFF",
"&	c #2424C8C8FFFF",
"*	c #2828CBCBFFFF",
"=	c #2C2CCDCDFFFF",
"-	c #3030D0D0FFFF",
";	c #3434D2D2FFFF",
":	c #000000000000",
">	c #3838D5D5FFFF",
",	c #3D3DD8D8FFFF",
"<	c #4141DADAFEFE",
"1	c #0F0FA3A34242",
"2	c #4545DDDDFFFF",
"3	c #4949DFDFFFFF",
"4	c #4D4DE2E2FFFF",
"5	c #5151E4E4FEFE",
"6	c #5555E7E7FFFF",
"7	c #5959EAEAFFFF",
"8	c #5D5DECECFFFF",
"9	c #6161EFEFFFFF",
"0	c #6565F2F2FFFF",
"q	c #6969F4F4FFFF",
"w	c #6D6DF7F7FFFF",
"e	c #FFFFFFFF0000",
"r	c #7171F9F9FFFF",
"                                                                                ",
"                                .................                               ",
"                            .....XXXXXXXXXXXXXXX.....                           ",
"                         ....XXXXXXXoooooooooXXXXXXX....                        ",
"               OOOOO   ...XXXXXooooooooo+oooooooooXXXXX...                      ",
"             OOOOOOOOO..XXXXoooo+++++++++++++++++ooooOOOX...                    ",
"            OOOO   OOOXXXoooo+++++@@@@@@@@@@@@@+++++oOOOXXX...                  ",
"            OOO   ..OOOooo++++@@@@@@#########@@@@@@++OOOooXXX..                 ",
"           OOOO  ..XOOOo+OOO@OO####OOOO#####OOOOO#@@OOOOOOooXXOOOO              ",
"           OOO ..XXXoo+++OOOOOO##OOOOOOO$$$OOOOOOO##OOOOOO+oOOOOOOO             ",
"           OOO..XXooo++@@OOOOOO$$OOO%%OOO%%OOO%$OOO$#OOO@@++OOOXXOOO            ",
"           OOO.XXoo+++@@#OOO$$$%OOO%&&&OO&&&&%%OOOO$$OOO#@@OOOooXXOO            ",
"           OOOXXoo++@@###OOO%%%%OOOOOOOOO&&&&OOOOOO%%OOO###OOOOOOOOO.           ",
"           OOOOoo++@OOO$$OOO%&&&OOOOOOOOO***OOO*OOO&%OOO$$#OOOOOOOOO..          ",
"          ..OOOo++@@OOO$%OOO&&**OOO========OOO**OOO&&OOO%$$OOO@++ooXX..         ",
"         ..XOOOO@@#OOO$%%OOO***==OOO--OOO--OOO==OOO**OOO%%$$OOO@@OOOXX..        ",
"         .XXoOOOOOOOOO%%&OOO*===-OOOOOOOO--OOOOOOOO=*OOOOO%%OOOOOOOOoXX.        ",
"        .XXoo++OOOOO%%&&&OOO==----;OOOO;;;;;OOO-OOO===OOOO&%%$OOOO++ooXX.       ",
"       ..Xoo++@#:::%%&&**===---;;;;>>>>>>>>>>>;;;;---===**&&%%$$##@++ooX..      ",
"      ..XXo++@@#:::%&&**==---;;;>>>>>,,,,,,,>>>>>;;;---==**&&%%$$#@@++oXX..     ",
"      .XXoo+@@##::::&**==--;;;>>>,,,,,,,,,,,,,,,>>>;;;--==**&&%%$##@@+ooXX.     ",
"     ..Xoo++@##$:::::*==--;;>>>,,,<<<<<<<<<<<<<,,,>>>;;--==**&&%%$##@++ooX..    ",
"     .XXo++@##$$::1:::=--;;>>,,,<<<<222222222<<<<,,,>>;;--==**&&%$$##@++oXX.    ",
"    ..:oo+@@#$$%::11::--;;>>,,<<<222233333332222<<<,,>>;;--==**&%%$$#@@+ooX..   ",
"    .::::+@##$%%::111::;>>,,,<<222333333:333333222<<,,,>>;--==*&&%%$##@++oXX.   ",
"   ..::::::#$$%&::111:::>,,<<22233344444:44444333222<<,,>;;--==*&&%$$#@@+ooX..  ",
"   . ::::::::%%&::1111:::,<<22333444555:::55544433322<<,,>;;--=**&%%$##@++oXX.  ",
"      :::::::::&::11111::<<223344455556:::655554443322<<,>>;;-==*&&%$$#@@+oXX.  ",
"      o+:::1::::::111111::223344555666::::6666555443322<,,>>;--=**&%%$##@+ooX.. ",
"  .XXo++@:::11::::111111:::33445566677::::77766655443322<,,>;;-==*&&%$$#@++oXX. ",
"  .XXo+@@#:::111:11111111::3445566777:::::88777665544332<<,>>;--=**&%$$#@@+oXX. ",
"  .Xoo+@##$:::111111111111::455667788::1::988877665544322<,,>;;-==*&%%$##@+ooX. ",
" ..Xo++@##$%:::11111111111:::5667888:::1::999888766554332<<,>>;--=*&&%$##@++oX..",
" .XXo++@#$$%&::111111111111:::678899::11::0099988766544322<,,>;--=**&%$$#@++oXX.",
" .XXo+@@#$%%&*::111111111111::77899:::111::000:::::::::::::::::;-=**&%%$#@@+oXX.",
" .XXo+@@#$%%&*=::111111111111::8890::1111::qq0:::::::::::::::::;-==*&%%$#@@+oXX.",
" .Xoo+@##$%&&*=-::11111111111:::99:::1111::wqq::eeeeeeeeeeeee::;--=*&&%$##@+ooX.",
" .Xoo+@##$%&&*=--::11111111111:::0::11111::wwq::eeeeeeeeeeeee::;--=*&&%$##@+ooX.",
" .Xoo+@##$%&&*=--:::11111111111:::::11111::rwq::eeeeeeeeeeeee::;--=*&&%$##@+ooX.",
" .Xoo+@##$%&&*=--;:::11111111111:::111111::rww::eeeeeeeeeeeee::;--=*&&%$##@+ooX.",
" .Xo++@##$%&**=--;>:::1111111111:::111111::rww::eeeeeeeeeeeee::;--=**&%$##@++oX.",
" .Xoo+@##$%&&*=--;>,:::1111111111:11111111::ww::eeeeeeeeeeeee::;--=*&&%$##@+ooX.",
" .Xo:::::$%&&*=--;>,,:::111111111111111111::wq::eeeeeeeeeeeee::;--=*&&%$##@+ooX.",
":::::::::::::::::::::::::11111111111111111::wq::eeeeeeeeeeeee::;--=*&&%$##@+ooX.",
"::::::::::::::::::::::::::1111111111111111::::::eeeeeeeeeeeee::;--=*&&%$##@+ooX.",
"::eeeeeeee:::::111111111:::111111111111111::::::eeeeeeeeeeeee::;-==*&%%$#@@+oXX.",
"::eeeeeeeeee:::::1111111111111111111111111::ee::eeeeeeeeeeeee::;-=**&%%$#@@+oXX.",
"::eeeeeeeeeeee::::111111111111111111111111::ee::eeeeeeeeeeeee::--=**&%$$#@++oXX.",
"::eeeeeeeeeeeee:::::11111111111111111111111::e::eeeeeeeeeeeee::--=*&&%$##@++oX..",
"::eeeeeeeeeeeee::-::::111111111111111111111::e::eeeeeeeeeeeee::-==*&%%$##@+ooX. ",
"::eeeeeeeeeeeee::--;::::1111111111111111111::e::eeeeeeeeeeeee::-=**&%$$#@@+oXX. ",
"::eeeeeeeeeeeee::=-;;>::::11111111111111111::e::eeeeeeeeeeeee:::::::::::::::XX. ",
"::eeeeeeeeeeeee::=--;>>,::::111111111111111::e::eeeeeeeeeeeee:::::::::::::::X.. ",
"::eeeeeeeeeeeee::==-;;>>,<::::1111111111111::e::eeeeeeeeeeeee::eeeeeeeeeee::X.  ",
"::eeeeeeeeeeeee::*=--;;>,,<<::::11111111111::e::eeeeeeeeeeeee::eeeeeeeeeee::X.  ",
"::eeeeeeeeeeeee::*==--;;>,,<<<::::1111111111::::eeeeeeeeeeeee::eeeeeeeeeee::..  ",
"::eeeeeeeeeeeee::&*==--;>>,,<<<:::::11111111::::eeeeeeeeeeeee::eeeeeeeeeee::.   ",
"::eeeeeeeeeeeee::&**==--;;<<<<<::e::::111111::::eeeeeeeeeeeee::eeeeeeeeeee::.   ",
"::eeeeeeeeeeeee::&&**==--<<<<<<::eee::::1111::::eeeeeeeeeeeee::eeeeeeeeeee::    ",
"::eeeeeeeeeeeee::::::::::::::::::eeee:::::11::::eeeeeeeeeeeee::eeeeeeeeeee::    ",
"::eeeeeeeeeeeee::::::::::::::::::eeeeee:::::::::eeeeeeeeeeeee::eeeeeeeeeee::    ",
"::eeeeeeeeeeeee::eeeeeeeeeeeeee::eeeeeeee:::::::eeeeeeeeeeeee::eeeeeeeeeee::    ",
"::eeeeeeeeeeeee::eeeeeeeeeeeeee::eeeeeeeeee:::::eeeeeeeeeeeee::eeeeeeeeeee::    ",
"::eeeeeeeeeeeee::eeeeeeeeeeeeee::eeeeeeeeeeee:::eeeeeeeeeeeee::eeeeeeeeeee::    ",
"::eeeeeeeeeeeee::eeeeeeeeeeeeee::eeeeeeeeeeeee::eeeeeeeeeeeee::eeeeeeeeeee::    ",
"::eeeeeeeeeeeee::eeeeeeeeeeeeee::eeeeeeeeeeeee::eeeeeeeeeeeee::eeeeeeeeeee::    ",
"::eeeeeeeeeeeee::eeeeeeeeeeeeee::eeeeeeeeeeeee::eeeeeeeeeeeee::eeeeeeeeeee::    ",
"::eeeeeeeeeeeee::eeeeeeeeeeeeee::eeeeeeeeeeeee::eeeeeeeeeeeee::eeeeeeeeeee::    ",
"::eeeeeeeeeeeee::eeeeeeeeeeeeee::eeeeeeeeeeeee::eeeeeeeeeeeee::eeeeeeeeeee::    ",
"::eeeeeeeeeeeee::eeeeeeeeeeeeee::eeeeeeeeeeeee::eeeeeeeeeeeee::eeeeeeeeeee::    ",
"::eeeeeeeeeeeee::eeeeeeeeeeeeee::eeeeeeeeeeeee::eeeeeeeeeeeee::eeeeeeeeeee::    ",
"::eeeeeeeeeeeee::eeeeeeeeeeeeee::eeeeeeeeeeeee::eeeeeeeeeeeee::eeeeeeeeeee::    ",
"::eeeeeeeeeeeee::eeeeeeeeeeeeee::eeeeeeeeeeeee::eeeeeeeeeeeee::eeeeeeeeeee::    ",
"::eeeeeeeeeeeee::eeeeeeeeeeeeee::eeeeeeeeeeeee::eeeeeeeeeeeee::eeeeeeeeeee::    ",
"::eeeeeeeeeeeee::eeeeeeeeeeeeee::eeeeeeeeeeeee::eeeeeeeeeeeee::eeeeeeeeeee::    ",
"::eeeeeeeeeeeee::eeeeeeeeeeeeee::eeeeeeeeeeeee::eeeeeeeeeeeee::eeeeeeeeee:::    ",
"::eeeeeeeeeeeee::eeeeeeeeeeeeee::eeeeeeeeeeeee::eeeeeeeeeeeee::eeeeeeeeeee::    ",
"::eeeeeeeeeeeee::eeeeeeeeeeeeee::eeeeeeeeeeeee::eeeeeeeeeeeee::eeeeeeeeeee::    ",
"::eeeeeeeeeeeee::::::::::::::::::eeeeeeeeeeeee::eeeeeeeeeeeee::eeeeeeeeeee::    ",
"::::::::::::::::::::::::::::::::::::::::::::::::eeeeeeeeeeeee::eeeeeeeeeee::    "};
