/* XPM */
static char *open[]={
"40 32 123 2",
".m c #000000",
"#4 c #030303",
".s c #060606",
"#U c #080808",
".u c #0d0d0d",
".f c #0e0e0e",
".h c #111111",
"#Q c #151515",
".b c #191919",
"#j c #1c1c00",
"#R c #1d1d1d",
"#r c #222222",
"#B c #262626",
".A c #282800",
".t c #282828",
".n c #2a2a2a",
"#3 c #303030",
".y c #333300",
".x c #33330b",
".z c #33332d",
".i c #333333",
"#0 c #373737",
"#A c #383822",
".W c #393939",
"#O c #3f3f3f",
"#H c #404040",
".w c #444444",
"#q c #484804",
"#N c #484848",
".7 c #4c4c4c",
".9 c #4f4f43",
"#Y c #505050",
".4 c #52523b",
"#X c #545454",
".k c #555555",
".6 c #57572a",
"#J c #595959",
"#. c #5a5a00",
".5 c #5d5d19",
"#V c #5d5d5d",
".8 c #606011",
".3 c #636308",
"#I c #656565",
".N c #666666",
"#T c #696969",
".v c #6a6a6a",
"#h c #6b6b11",
".G c #6b6b6b",
".p c #727272",
"#s c #7b7b7b",
"#C c #7f7f7f",
"#S c #838383",
"#2 c #848484",
"#t c #888800",
".o c #888888",
"#W c #8b8b8b",
"#M c #8c8c8c",
".Q c #8d8d00",
".O c #8d8d39",
".X c #8d8d71",
".e c #8d8d8d",
".g c #949494",
"#K c #989898",
".2 c #999900",
"## c #999922",
"#v c #999999",
".F c #9c9c9c",
"#Z c #9d9d9d",
".0 c #9e9e9e",
".j c #a1a1a1",
"#u c #a4a477",
".q c #a4a4a4",
"#L c #a5a5a5",
"#G c #a9a9a9",
".E c #aaaaaa",
"#P c #aeaeae",
".1 c #afaf22",
"#y c #afaf55",
"#i c #afafaf",
"#D c #b2b2b2",
"#F c #b6b6b6",
"#E c #bababa",
"#x c #bbbb33",
".M c #bbbbbb",
".d c #bfbfbf",
"#z c #c0c022",
".V c #c6c600",
"#w c #c6c611",
".L c #c6c64f",
"#k c #cbcb77",
"#l c #cbcb99",
".Z c #cccc17",
".H c #cccc88",
".C c #cccccc",
".r c #d1d1d1",
"#n c #d3d37f",
".D c #d7d7d7",
"#a c #d9d96e",
"#f c #dada69",
"#c c #dcdc65",
"#o c #dcdc66",
"#d c #dfdf5d",
"#b c #e2e254",
"#g c #e3e350",
"#e c #e5e54c",
".a c #e7e7e7",
".B c #e8e8e8",
"#p c #e9e93f",
"#m c #eded33",
".# c #f2f2f2",
"#1 c #f3f3f3",
".c c #f7f7f7",
"Qt c #fdfdfd",
".T c #ffff00",
".S c #ffff39",
".J c #ffff66",
".I c #ffff71",
".P c #ffff88",
".K c #ffff93",
".R c #ffffaa",
".Y c #ffffcc",
".U c #ffffe2",
".l c #ffffff",
"Qt.#.#.#.#.#.#.#.#.#.#.#.#.#.#.#.#.#.#.#.#.#.#.#.#.#.#.#.#.#.#.#.#.#.#.#.#.#.a.b",
".c.d.d.d.d.d.d.d.d.d.d.d.d.d.d.d.d.d.d.d.d.d.d.d.d.d.d.d.d.d.d.d.d.d.d.d.d.d.e.f",
".c.d.d.d.d.d.d.d.d.d.d.d.d.d.d.d.d.d.d.d.d.d.d.d.d.d.d.d.d.d.d.d.d.d.d.d.d.d.e.f",
".c.d.d.d.d.d.d.d.d.d.d.d.d.d.d.d.d.d.d.d.d.d.d.d.d.d.d.d.d.d.d.d.d.d.d.d.d.d.e.f",
".c.d.d.d.d.d.d.d.d.d.d.d.d.d.d.d.d.g.h.i.i.i.i.i.h.j.d.d.d.d.d.d.d.d.d.d.d.d.e.f",
".c.d.d.d.d.d.d.d.d.d.d.d.d.d.d.d.d.g.k.l.l.l.l.l.m.n.d.d.d.d.d.d.d.d.d.d.d.d.e.f",
".c.d.d.d.d.d.d.d.d.d.d.d.d.d.d.d.d.g.k.l.l.l.l.l.h.o.p.d.d.d.d.d.d.d.d.d.d.d.e.f",
".c.d.d.d.d.d.d.d.d.d.d.d.d.d.d.d.d.g.k.q.i.i.r.l.s.t.u.v.d.d.d.d.d.d.d.d.d.d.e.f",
".c.d.d.d.d.d.d.d.d.d.d.d.e.w.x.y.z.A.k.B.C.C.C.C.C.D.E.k.d.d.d.d.d.d.d.d.d.d.e.f",
".c.d.d.d.d.d.d.d.d.d.d.F.G.H.I.J.K.L.k.M.N.N.N.N.N.o.E.k.d.d.d.d.d.d.d.d.d.d.e.f",
".c.d.d.d.d.d.d.d.d.d.d.v.O.P.I.J.K.L.k.M.N.N.N.N.N.o.E.k.d.d.d.d.d.d.d.d.d.d.e.f",
".c.d.d.d.d.d.d.d.d.d.d.v.Q.R.S.T.U.V.k.e.m.m.m.m.m.W.E.k.d.d.d.d.d.d.d.d.d.d.e.f",
".c.d.d.d.d.d.d.d.d.d.d.v.X.J.R.Y.Z.0.w.C.C.C.C.C.C.D.E.k.d.d.d.d.d.d.d.d.d.d.e.f",
".c.d.d.d.d.d.d.d.d.d.d.v.O.P.1.2.3.4.5.6.6.7.8.9#..W.E.k.d.d.d.d.d.d.d.d.d.d.e.f",
".c.d.d.d.d.d.d.d.d.d.d.v.O##.Q.2#a#b#c#d#d#e#f#g#h#i.E.k.d.d.d.d.d.d.d.d.d.d.e.f",
".c.d.d.d.d.d.d.d.d.d.d.v#j.2#k#l#m#n#e#o#o#l#p#q.s.i#r.k.d.d.d.d.d.d.d.d.d.d.e.f",
".c.d.d.d.d.d.d.d.d.d.d#s.h#t#u#v#w#u#x#y#y#v#z#A#B#B#B.v.d.d.d.d.d.d.d.d.d.d.e.f",
".c.d.d.d.d.d.d.d.d.d.d.d#C.7.7.7.7.7.7.7.7.7.7#D.d.d.d.d.d.d.d.d.d.d.d.d.d.d.e.f",
".c.d.d.d.d.d.d.d.d.d.d.d.d.d.d.d.d.d.d.d.d.d.d.d.d.d.d.d.d.d.d.d.d.d.d.d.d.d.e.f",
".c.d.d.d.d.d.d.d.d.d.d.d.d.d.d.d.d.d.d.d.d.d.d.d.d.d.d.d.d.d.d.d.d.d.d.d.d.d.e.f",
".c.d.d.d.d.d.d.d#E#C#B#B#B.p#F.d.d.d.d.d.d.d.d.d.d.d.d.d.d.d.d.d.d.d.d.d.d.d.e.f",
".c.d.d.d.d.d.d.d#G.n.d.d.d#H.g.d.d.d.d.d.d.d.d.d.d.d.d.d.d.d.d.d.d.d.d.d.d.d.e.f",
".c.d.d.d.d.d.d.d#G.n.d.d.d#H.g.d.7.7.7#C.d.d#I.7#J.d#K#C#C.7#L.d.d.d.d.d.d.d.e.f",
".c.d.d.d.d.d.d.d#G.n.d.d.d#H.g.d.h#v#v.N#s#J#C#v#M#N#C.h.N#v#O#P.d.d.d.d.d.d.e.f",
".c.d.d.d.d.d.d.d#G.n.d.d.d#H.g.d#Q.d.d.v.v#H#R#B#B#N#C.k.d.d.n#G.d.d.d.d.d.d.e.f",
".c.d.d.d.d.d.d.d#G.n.d.d.d#H.g.d#Q.d.d.v.v#H.g.d#F#S#C.k.d.d.n#G.d.d.d.d.d.d.e.f",
".c.d.d.d.d.d.d.d#F#T.7.7.7#I#P.d#U.7.7#V.F#W#X.7#Y#S#C.k.d.d.n#G.d.d.d.d.d.d.e.f",
".c.d.d.d.d.d.d.d.d#F#v#v#v#D.d.d.h#v#v.E.d.d.j#v#Z.d#D.E.d.d.j#E.d.d.d.d.d.d.e.f",
".c.d.d.d.d.d.d.d.d.d.d.d.d.d.d.d#0.d.d.d.d.d.d.d.d.d.d.d.d.d.d.d.d.d.d.d.d.d.e.f",
".c.d.d.d.d.d.d.d.d.d.d.d.d.d.d.d.d.d.d.d.d.d.d.d.d.d.d.d.d.d.d.d.d.d.d.d.d.d.e.f",
"#1#K#K#K#K#K#K#K#K#K#K#K#K#K#K#K#K#K#K#K#K#K#K#K#K#K#K#K#K#K#K#K#K#K#K#K#K#K#2.f",
"#3.b.b.b.b.b.b.b.b.b.b.b.b.b.b.b.b.b.b.b.b.b.b.b.b.b.b.b.b.b.b.b.b.b.b.b.b.b.b#4"};
